<?xml version="1.0" encoding="UTF-8" standalone="no"?>
<svg
   height="21"
   viewBox="0 -960 648.23997 840"
   width="16.205999"
   fill="#000000"
   version="1.1"
   id="svg1"
   sodipodi:docname="server.svg"
   inkscape:version="1.4.2 (ebf0e940d0, 2025-05-08)"
   xmlns:inkscape="http://www.inkscape.org/namespaces/inkscape"
   xmlns:sodipodi="http://sodipodi.sourceforge.net/DTD/sodipodi-0.dtd"
   xmlns="http://www.w3.org/2000/svg"
   xmlns:svg="http://www.w3.org/2000/svg">
  <defs
     id="defs1" />
  <sodipodi:namedview
     id="namedview1"
     pagecolor="#ffffff"
     bordercolor="#000000"
     borderopacity="0.25"
     inkscape:showpageshadow="2"
     inkscape:pageopacity="0.0"
     inkscape:pagecheckerboard="0"
     inkscape:deskcolor="#d1d1d1"
     inkscape:zoom="28.578899"
     inkscape:cx="9.8849154"
     inkscape:cy="13.96135"
     inkscape:window-width="2226"
     inkscape:window-height="1179"
     inkscape:window-x="0"
     inkscape:window-y="0"
     inkscape:window-maximized="1"
     inkscape:current-layer="svg1" />
  <path
     d="m 139.99628,-180 c -22,0 -40.833334,-7.83333 -56.500004,-23.5 -15.666667,-15.66667 -23.5,-34.5 -23.5,-56.5 v -560 c 0,-22 7.833333,-40.83333 23.5,-56.5 15.66667,-15.66667 34.500004,-23.5 56.500004,-23.5 H 508.2437 c 22,0 40.83333,7.83333 56.5,23.5 15.66667,15.66667 23.5,34.5 23.5,56.5 v 560 c 0,22 -7.83333,40.83333 -23.5,56.5 -15.66667,15.66667 -34.5,23.5 -56.5,23.5 z m 0,-80 H 508.2437 V -820 H 139.99628 Z m 40,-147.40329 H 468.2437 v -80 H 179.99628 Z m 0,-132.59671 H 468.2437 v -80 H 179.99628 Z m 0,-132.59671 H 468.2437 v -80 H 179.99628 Z m -40,412.59671 H 508.2437 Z"
     id="path1"
     sodipodi:nodetypes="sssssssssssssccccccccccccccccccccccc" />
</svg>
